<mxfile host="app.diagrams.net" modified="2023-12-18T16:44:37.096Z" agent="Mozilla/5.0 (Windows NT 10.0; Win64; x64) AppleWebKit/537.36 (KHTML, like Gecko) Chrome/120.0.0.0 Safari/537.36 Edg/120.0.0.0" etag="WeA744kG-mAaPVolbv6Q" version="22.1.11" type="device">
  <diagram name="Seite-1" id="KoEQyBiU0ZT4uKlD-G1_">
    <mxGraphModel dx="1216" dy="698" grid="1" gridSize="10" guides="1" tooltips="1" connect="1" arrows="1" fold="1" page="1" pageScale="1" pageWidth="1654" pageHeight="1169" math="0" shadow="0">
      <root>
        <mxCell id="0" />
        <mxCell id="1" parent="0" />
        <mxCell id="9LihkwWF-YBkYtFYBpMD-2" value="" style="rounded=0;whiteSpace=wrap;html=1;fillColor=none;dashed=1;" parent="1" vertex="1">
          <mxGeometry x="30" y="80" width="580" height="150" as="geometry" />
        </mxCell>
        <mxCell id="9LihkwWF-YBkYtFYBpMD-25" style="edgeStyle=orthogonalEdgeStyle;rounded=0;orthogonalLoop=1;jettySize=auto;html=1;entryX=0;entryY=0.5;entryDx=0;entryDy=0;" parent="1" source="9LihkwWF-YBkYtFYBpMD-26" target="9LihkwWF-YBkYtFYBpMD-28" edge="1">
          <mxGeometry relative="1" as="geometry" />
        </mxCell>
        <mxCell id="9LihkwWF-YBkYtFYBpMD-26" value="Remove upper Outliers" style="rounded=0;whiteSpace=wrap;html=1;fillColor=#dae8fc;strokeColor=#6c8ebf;" parent="1" vertex="1">
          <mxGeometry x="50" y="110" width="120" height="90" as="geometry" />
        </mxCell>
        <mxCell id="9LihkwWF-YBkYtFYBpMD-48" style="edgeStyle=orthogonalEdgeStyle;rounded=0;orthogonalLoop=1;jettySize=auto;html=1;entryX=0;entryY=0.5;entryDx=0;entryDy=0;" parent="1" source="9LihkwWF-YBkYtFYBpMD-28" target="9LihkwWF-YBkYtFYBpMD-47" edge="1">
          <mxGeometry relative="1" as="geometry" />
        </mxCell>
        <mxCell id="9LihkwWF-YBkYtFYBpMD-28" value="Get Percentage of Outliers" style="rounded=0;whiteSpace=wrap;html=1;fillColor=#dae8fc;strokeColor=#6c8ebf;" parent="1" vertex="1">
          <mxGeometry x="250" y="110" width="120" height="90" as="geometry" />
        </mxCell>
        <mxCell id="9LihkwWF-YBkYtFYBpMD-51" style="edgeStyle=orthogonalEdgeStyle;rounded=0;orthogonalLoop=1;jettySize=auto;html=1;entryX=0;entryY=0.5;entryDx=0;entryDy=0;" parent="1" source="9LihkwWF-YBkYtFYBpMD-47" target="9LihkwWF-YBkYtFYBpMD-50" edge="1">
          <mxGeometry relative="1" as="geometry" />
        </mxCell>
        <mxCell id="9LihkwWF-YBkYtFYBpMD-47" value="Create Isolation Forest Model" style="rounded=0;whiteSpace=wrap;html=1;fillColor=#dae8fc;strokeColor=#6c8ebf;" parent="1" vertex="1">
          <mxGeometry x="440" y="110" width="120" height="90" as="geometry" />
        </mxCell>
        <mxCell id="9LihkwWF-YBkYtFYBpMD-50" value="Model" style="ellipse;whiteSpace=wrap;html=1;fillColor=#f8cecc;strokeColor=#b85450;" parent="1" vertex="1">
          <mxGeometry x="660" y="115" width="80" height="80" as="geometry" />
        </mxCell>
        <mxCell id="9LihkwWF-YBkYtFYBpMD-52" value="&lt;font style=&quot;font-size: 9px;&quot;&gt;Store Model&lt;/font&gt;" style="shape=cylinder3;whiteSpace=wrap;html=1;boundedLbl=1;backgroundOutline=1;size=15;fillColor=#f5f5f5;fontColor=#333333;strokeColor=#666666;" parent="1" vertex="1">
          <mxGeometry x="797" y="115" width="60" height="80" as="geometry" />
        </mxCell>
        <mxCell id="9LihkwWF-YBkYtFYBpMD-53" style="edgeStyle=orthogonalEdgeStyle;rounded=0;orthogonalLoop=1;jettySize=auto;html=1;entryX=0;entryY=0.5;entryDx=0;entryDy=0;entryPerimeter=0;" parent="1" source="9LihkwWF-YBkYtFYBpMD-50" target="9LihkwWF-YBkYtFYBpMD-52" edge="1">
          <mxGeometry relative="1" as="geometry" />
        </mxCell>
      </root>
    </mxGraphModel>
  </diagram>
</mxfile>
